<svg width="1180" height="470" viewBox="0 0 1180 470" fill="none" xmlns="http://www.w3.org/2000/svg">
  <rect width="1180" height="470" rx="28" fill="#FFF8EC"/>
  <text x="48" y="56" fill="#17130D" font-family="-apple-system, BlinkMacSystemFont, 'SF Pro Display', sans-serif" font-size="24" font-weight="700">Bready navigation + top action icons - simple monoline proposal</text>
  <text x="48" y="84" fill="#68533B" font-family="-apple-system, BlinkMacSystemFont, 'SF Pro Text', sans-serif" font-size="14">2pt stroke on a 24pt grid. Active changes color only. No bakery illustration details.</text>

  <defs>
    <g id="recipe-icon" stroke-linecap="round" stroke-linejoin="round">
      <rect x="7.2" y="4.8" width="10.6" height="14.4" rx="1.35"/>
      <path d="M10.1 7.3V16.7"/>
      <path d="M12.4 10H15.2"/>
      <path d="M12.4 13H15.2"/>
    </g>

    <g id="bakes-icon" stroke-linecap="round" stroke-linejoin="round">
      <path d="M4.5 8.5H19.5V19H4.5V8.5Z"/>
      <path d="M7.5 14.5C8 11.8 10 10.5 12 10.5C14 10.5 16 11.8 16.5 14.5V16H7.5V14.5Z"/>
      <path d="M8 19V20.5"/>
      <path d="M16 19V20.5"/>
    </g>

    <g id="starter-icon" stroke-linecap="round" stroke-linejoin="round">
      <path d="M9.2 4.6H14.8"/>
      <path d="M9.2 4.6V7.2C8.3 7.8 7.8 8.8 7.8 10V18.1C7.8 19 8.5 19.7 9.4 19.7H14.6C15.5 19.7 16.2 19 16.2 18.1V10C16.2 8.8 15.7 7.8 14.8 7.2V4.6"/>
      <path d="M8.8 14.1H15.2V18.1C15.2 18.4 14.9 18.7 14.6 18.7H9.4C9.1 18.7 8.8 18.4 8.8 18.1V14.1Z" fill="currentColor" fill-opacity="0.14" stroke="none"/>
      <path d="M8.8 14.1H15.2"/>
    </g>

    <g id="settings-icon" stroke-linecap="round" stroke-linejoin="round">
      <path d="M12 5.5L13.2 7.1L15.2 6.7L15.9 8.6L17.8 9.2L17.4 11.2L19 12.4L17.4 13.6L17.8 15.6L15.9 16.2L15.2 18.1L13.2 17.7L12 19.3L10.8 17.7L8.8 18.1L8.1 16.2L6.2 15.6L6.6 13.6L5 12.4L6.6 11.2L6.2 9.2L8.1 8.6L8.8 6.7L10.8 7.1L12 5.5Z"/>
      <circle cx="12" cy="12.4" r="2.3"/>
    </g>

    <g id="copy-icon" stroke-linecap="round" stroke-linejoin="round">
      <path d="M7.4 8.3H6.2C5.4 8.3 4.8 8.9 4.8 9.7V18.1C4.8 18.9 5.4 19.5 6.2 19.5H14.6C15.4 19.5 16 18.9 16 18.1V16.9"/>
      <rect x="8.4" y="4.5" width="10.8" height="10.8" rx="1.5"/>
    </g>
  </defs>

  <g font-family="-apple-system, BlinkMacSystemFont, 'SF Pro Text', sans-serif">
    <text x="48" y="134" fill="#68533B" font-size="13" font-weight="700">72pt enlarged</text>
    <text x="48" y="344" fill="#68533B" font-size="13" font-weight="700">24pt actual size</text>
  </g>

  <g transform="translate(122 122)">
    <text x="0" y="-18" fill="#17130D" font-family="-apple-system, BlinkMacSystemFont, 'SF Pro Text', sans-serif" font-size="16" font-weight="650">Recipes</text>
    <g transform="scale(3)" color="#17130D" stroke="#17130D" stroke-width="2"><use href="#recipe-icon"/></g>
    <g transform="translate(92 0) scale(3)" color="#904910" stroke="#904910" stroke-width="2"><use href="#recipe-icon"/></g>
    <text x="4" y="100" fill="#68533B" font-family="-apple-system, BlinkMacSystemFont, 'SF Pro Text', sans-serif" font-size="12">inactive</text>
    <text x="96" y="100" fill="#904910" font-family="-apple-system, BlinkMacSystemFont, 'SF Pro Text', sans-serif" font-size="12">active</text>
  </g>

  <g transform="translate(332 122)">
    <text x="0" y="-18" fill="#17130D" font-family="-apple-system, BlinkMacSystemFont, 'SF Pro Text', sans-serif" font-size="16" font-weight="650">Bakes</text>
    <g transform="scale(3)" color="#17130D" stroke="#17130D" stroke-width="2"><use href="#bakes-icon"/></g>
    <g transform="translate(92 0) scale(3)" color="#904910" stroke="#904910" stroke-width="2"><use href="#bakes-icon"/></g>
    <text x="4" y="100" fill="#68533B" font-family="-apple-system, BlinkMacSystemFont, 'SF Pro Text', sans-serif" font-size="12">inactive</text>
    <text x="96" y="100" fill="#904910" font-family="-apple-system, BlinkMacSystemFont, 'SF Pro Text', sans-serif" font-size="12">active</text>
  </g>

  <g transform="translate(542 122)">
    <text x="0" y="-18" fill="#17130D" font-family="-apple-system, BlinkMacSystemFont, 'SF Pro Text', sans-serif" font-size="16" font-weight="650">Starter</text>
    <g transform="scale(3)" color="#17130D" stroke="#17130D" stroke-width="2"><use href="#starter-icon"/></g>
    <g transform="translate(92 0) scale(3)" color="#904910" stroke="#904910" stroke-width="2"><use href="#starter-icon"/></g>
    <text x="4" y="100" fill="#68533B" font-family="-apple-system, BlinkMacSystemFont, 'SF Pro Text', sans-serif" font-size="12">inactive</text>
    <text x="96" y="100" fill="#904910" font-family="-apple-system, BlinkMacSystemFont, 'SF Pro Text', sans-serif" font-size="12">active</text>
  </g>

  <g transform="translate(752 122)">
    <text x="0" y="-18" fill="#17130D" font-family="-apple-system, BlinkMacSystemFont, 'SF Pro Text', sans-serif" font-size="16" font-weight="650">Settings</text>
    <g transform="scale(3)" color="#17130D" stroke="#17130D" stroke-width="2"><use href="#settings-icon"/></g>
    <g transform="translate(92 0) scale(3)" color="#904910" stroke="#904910" stroke-width="2"><use href="#settings-icon"/></g>
    <text x="4" y="100" fill="#68533B" font-family="-apple-system, BlinkMacSystemFont, 'SF Pro Text', sans-serif" font-size="12">inactive</text>
    <text x="96" y="100" fill="#904910" font-family="-apple-system, BlinkMacSystemFont, 'SF Pro Text', sans-serif" font-size="12">active</text>
  </g>

  <g transform="translate(962 122)">
    <text x="0" y="-18" fill="#17130D" font-family="-apple-system, BlinkMacSystemFont, 'SF Pro Text', sans-serif" font-size="16" font-weight="650">Copy</text>
    <g transform="scale(3)" color="#17130D" stroke="#17130D" stroke-width="2"><use href="#copy-icon"/></g>
    <g transform="translate(92 0) scale(3)" color="#904910" stroke="#904910" stroke-width="2"><use href="#copy-icon"/></g>
    <text x="4" y="100" fill="#68533B" font-family="-apple-system, BlinkMacSystemFont, 'SF Pro Text', sans-serif" font-size="12">inactive</text>
    <text x="96" y="100" fill="#904910" font-family="-apple-system, BlinkMacSystemFont, 'SF Pro Text', sans-serif" font-size="12">active</text>
  </g>

  <g transform="translate(126 354)" stroke-width="2">
    <g color="#17130D" stroke="#17130D"><use href="#recipe-icon"/></g>
    <g transform="translate(36 0)" color="#904910" stroke="#904910"><use href="#recipe-icon"/></g>
    <g transform="translate(212 0)" color="#17130D" stroke="#17130D"><use href="#bakes-icon"/></g>
    <g transform="translate(248 0)" color="#904910" stroke="#904910"><use href="#bakes-icon"/></g>
    <g transform="translate(424 0)" color="#17130D" stroke="#17130D"><use href="#starter-icon"/></g>
    <g transform="translate(460 0)" color="#904910" stroke="#904910"><use href="#starter-icon"/></g>
    <g transform="translate(636 0)" color="#17130D" stroke="#17130D"><use href="#settings-icon"/></g>
    <g transform="translate(672 0)" color="#904910" stroke="#904910"><use href="#settings-icon"/></g>
    <g transform="translate(848 0)" color="#17130D" stroke="#17130D"><use href="#copy-icon"/></g>
    <g transform="translate(884 0)" color="#904910" stroke="#904910"><use href="#copy-icon"/></g>
  </g>

  <g font-family="-apple-system, BlinkMacSystemFont, 'SF Pro Text', sans-serif" font-size="12" fill="#68533B">
    <text x="126" y="410">book/list outline</text>
    <text x="338" y="410">simple oven + loaf</text>
    <text x="550" y="410">vertical bottle + fill</text>
    <text x="762" y="410">standard gear</text>
    <text x="974" y="410">standard copy</text>
  </g>
</svg>
